# xmcd CD database file
#
# Track frame offsets:
#	150
#	39528
#	59248
#	85840
#	114703
#	144783
#	168576
#	194761
#	215684
#	242290
#	277501
#
# Disc length: 3952 seconds
#
# Revision: 0
# Processed by: cddbd v1.5.2PL0 Copyright (c) Steve Scherf et al.
# Submitted via: CDex 1.51
#
DISCID=9d0f6e0b
DTITLE=Llewellyn - Shiatsu Gold
DYEAR=2006
DGENRE=New Age
TTITLE0=The Healing Pool
TTITLE1=Shiatsu Gold
TTITLE2=Holy Grail
TTITLE3=Guinevere
TTITLE4=Moon
TTITLE5=To Dream Of Pegasus
TTITLE6=Sun
TTITLE7=Place Of Enchantment
TTITLE8=The Healing Mist
TTITLE9=In The Mists Of Sleep
TTITLE10=The Healing Pool (Reprise)
EXTD=YEAR: 2006
EXTT0=
EXTT1=
EXTT2=
EXTT3=
EXTT4=
EXTT5=
EXTT6=
EXTT7=
EXTT8=
EXTT9=
EXTT10=
PLAYORDER=
